<mxfile host="app.diagrams.net" modified="2021-08-07T18:44:05.941Z" agent="5.0 (Windows NT 10.0; Win64; x64) AppleWebKit/537.36 (KHTML, like Gecko) Chrome/92.0.4515.131 Safari/537.36" etag="mmd_yjigsOe3SP39FZyF" version="14.9.2" type="github">
  <diagram id="Bu6V3V-Sf1SO0hkXzAme" name="Page-1">
    <mxGraphModel dx="868" dy="450" grid="1" gridSize="10" guides="1" tooltips="1" connect="1" arrows="1" fold="1" page="1" pageScale="1" pageWidth="827" pageHeight="1169" math="0" shadow="0">
      <root>
        <mxCell id="0" />
        <mxCell id="1" parent="0" />
        <mxCell id="QMtQDDyE9ecYJNEzUJB2-11" style="rounded=0;orthogonalLoop=1;jettySize=auto;html=1;exitX=1;exitY=0.5;exitDx=0;exitDy=0;entryX=0;entryY=0.5;entryDx=0;entryDy=0;endArrow=none;endFill=0;startArrow=none;" parent="1" source="bpnxgHZHVHbwMCRgW0WN-5" target="QMtQDDyE9ecYJNEzUJB2-2" edge="1">
          <mxGeometry relative="1" as="geometry">
            <Array as="points">
              <mxPoint x="320" y="670" />
            </Array>
          </mxGeometry>
        </mxCell>
        <mxCell id="bpnxgHZHVHbwMCRgW0WN-23" style="edgeStyle=orthogonalEdgeStyle;rounded=0;orthogonalLoop=1;jettySize=auto;html=1;exitX=0.5;exitY=0;exitDx=0;exitDy=0;entryX=0.5;entryY=1;entryDx=0;entryDy=0;endArrow=none;endFill=0;" parent="1" source="QMtQDDyE9ecYJNEzUJB2-1" target="QMtQDDyE9ecYJNEzUJB2-4" edge="1">
          <mxGeometry relative="1" as="geometry" />
        </mxCell>
        <mxCell id="QMtQDDyE9ecYJNEzUJB2-1" value="&lt;font style=&quot;font-size: 14px&quot;&gt;&lt;b&gt;Học Sinh&lt;/b&gt;&lt;/font&gt;" style="rounded=0;whiteSpace=wrap;html=1;strokeWidth=1;" parent="1" vertex="1">
          <mxGeometry x="80" y="640" width="120" height="60" as="geometry" />
        </mxCell>
        <mxCell id="bpnxgHZHVHbwMCRgW0WN-4" style="edgeStyle=orthogonalEdgeStyle;rounded=0;orthogonalLoop=1;jettySize=auto;html=1;exitX=1;exitY=0.5;exitDx=0;exitDy=0;entryX=0;entryY=0.5;entryDx=0;entryDy=0;endArrow=none;endFill=0;" parent="1" source="QMtQDDyE9ecYJNEzUJB2-2" target="QMtQDDyE9ecYJNEzUJB2-6" edge="1">
          <mxGeometry relative="1" as="geometry" />
        </mxCell>
        <mxCell id="QMtQDDyE9ecYJNEzUJB2-2" value="&lt;span style=&quot;font-size: 14px&quot;&gt;&lt;b&gt;Điểm&lt;/b&gt;&lt;/span&gt;" style="rounded=0;whiteSpace=wrap;html=1;strokeWidth=1;" parent="1" vertex="1">
          <mxGeometry x="400" y="640" width="120" height="60" as="geometry" />
        </mxCell>
        <mxCell id="QMtQDDyE9ecYJNEzUJB2-4" value="&lt;span style=&quot;font-size: 14px&quot;&gt;&lt;b&gt;Lớp&lt;/b&gt;&lt;/span&gt;" style="rounded=0;whiteSpace=wrap;html=1;strokeWidth=1;" parent="1" vertex="1">
          <mxGeometry x="80" y="380" width="120" height="60" as="geometry" />
        </mxCell>
        <mxCell id="QMtQDDyE9ecYJNEzUJB2-6" value="&lt;span style=&quot;font-size: 14px&quot;&gt;&lt;b&gt;Môn Học&lt;/b&gt;&lt;/span&gt;" style="rounded=0;whiteSpace=wrap;html=1;strokeWidth=1;" parent="1" vertex="1">
          <mxGeometry x="680" y="640" width="120" height="60" as="geometry" />
        </mxCell>
        <mxCell id="QMtQDDyE9ecYJNEzUJB2-7" value="&lt;span style=&quot;font-size: 14px&quot;&gt;&lt;b&gt;Khối&lt;/b&gt;&lt;/span&gt;" style="rounded=0;whiteSpace=wrap;html=1;strokeWidth=1;" parent="1" vertex="1">
          <mxGeometry x="440" y="375" width="110" height="60" as="geometry" />
        </mxCell>
        <mxCell id="bpnxgHZHVHbwMCRgW0WN-5" value="&lt;font style=&quot;font-size: 14px&quot;&gt;có&lt;/font&gt;" style="rhombus;whiteSpace=wrap;html=1;" parent="1" vertex="1">
          <mxGeometry x="260" y="650" width="80" height="40" as="geometry" />
        </mxCell>
        <mxCell id="bpnxgHZHVHbwMCRgW0WN-6" value="" style="rounded=0;orthogonalLoop=1;jettySize=auto;html=1;exitX=1;exitY=0.5;exitDx=0;exitDy=0;entryX=0;entryY=0.5;entryDx=0;entryDy=0;endArrow=none;endFill=0;" parent="1" source="QMtQDDyE9ecYJNEzUJB2-1" target="bpnxgHZHVHbwMCRgW0WN-5" edge="1">
          <mxGeometry relative="1" as="geometry">
            <mxPoint x="240" y="670" as="sourcePoint" />
            <mxPoint x="400" y="670" as="targetPoint" />
            <Array as="points" />
          </mxGeometry>
        </mxCell>
        <mxCell id="bpnxgHZHVHbwMCRgW0WN-7" value="Mã HS" style="ellipse;whiteSpace=wrap;html=1;" parent="1" vertex="1">
          <mxGeometry x="10" y="570" width="90" height="50" as="geometry" />
        </mxCell>
        <mxCell id="bpnxgHZHVHbwMCRgW0WN-8" value="Họ Tên" style="ellipse;whiteSpace=wrap;html=1;" parent="1" vertex="1">
          <mxGeometry x="170" y="560" width="90" height="50" as="geometry" />
        </mxCell>
        <mxCell id="bpnxgHZHVHbwMCRgW0WN-9" value="Ngày Sinh" style="ellipse;whiteSpace=wrap;html=1;" parent="1" vertex="1">
          <mxGeometry x="100" y="750" width="90" height="50" as="geometry" />
        </mxCell>
        <mxCell id="bpnxgHZHVHbwMCRgW0WN-10" value="Giới&amp;nbsp; Tính" style="ellipse;whiteSpace=wrap;html=1;" parent="1" vertex="1">
          <mxGeometry y="750" width="90" height="50" as="geometry" />
        </mxCell>
        <mxCell id="bpnxgHZHVHbwMCRgW0WN-11" value="Địa Chỉ" style="ellipse;whiteSpace=wrap;html=1;" parent="1" vertex="1">
          <mxGeometry x="210" y="750" width="90" height="50" as="geometry" />
        </mxCell>
        <mxCell id="bpnxgHZHVHbwMCRgW0WN-13" value="" style="endArrow=none;html=1;exitX=0.642;exitY=0;exitDx=0;exitDy=0;exitPerimeter=0;entryX=0;entryY=1;entryDx=0;entryDy=0;" parent="1" source="QMtQDDyE9ecYJNEzUJB2-1" target="bpnxgHZHVHbwMCRgW0WN-8" edge="1">
          <mxGeometry width="50" height="50" relative="1" as="geometry">
            <mxPoint x="135" y="640" as="sourcePoint" />
            <mxPoint x="175" y="600" as="targetPoint" />
          </mxGeometry>
        </mxCell>
        <mxCell id="bpnxgHZHVHbwMCRgW0WN-14" value="" style="endArrow=none;html=1;exitX=0.5;exitY=0;exitDx=0;exitDy=0;" parent="1" source="bpnxgHZHVHbwMCRgW0WN-10" edge="1">
          <mxGeometry width="50" height="50" relative="1" as="geometry">
            <mxPoint x="62.039999999999964" y="740" as="sourcePoint" />
            <mxPoint x="80" y="700" as="targetPoint" />
          </mxGeometry>
        </mxCell>
        <mxCell id="bpnxgHZHVHbwMCRgW0WN-15" value="" style="endArrow=none;html=1;exitX=0.5;exitY=0;exitDx=0;exitDy=0;" parent="1" source="bpnxgHZHVHbwMCRgW0WN-9" edge="1">
          <mxGeometry width="50" height="50" relative="1" as="geometry">
            <mxPoint x="122.03999999999996" y="740" as="sourcePoint" />
            <mxPoint x="140" y="700" as="targetPoint" />
          </mxGeometry>
        </mxCell>
        <mxCell id="bpnxgHZHVHbwMCRgW0WN-16" value="" style="endArrow=none;html=1;exitX=0.278;exitY=0.08;exitDx=0;exitDy=0;exitPerimeter=0;entryX=0.858;entryY=1;entryDx=0;entryDy=0;entryPerimeter=0;" parent="1" source="bpnxgHZHVHbwMCRgW0WN-11" target="QMtQDDyE9ecYJNEzUJB2-1" edge="1">
          <mxGeometry width="50" height="50" relative="1" as="geometry">
            <mxPoint x="260" y="760" as="sourcePoint" />
            <mxPoint x="200" y="700" as="targetPoint" />
          </mxGeometry>
        </mxCell>
        <mxCell id="bpnxgHZHVHbwMCRgW0WN-18" value="" style="endArrow=none;html=1;exitX=0;exitY=0;exitDx=0;exitDy=0;" parent="1" source="QMtQDDyE9ecYJNEzUJB2-1" target="bpnxgHZHVHbwMCRgW0WN-7" edge="1">
          <mxGeometry width="50" height="50" relative="1" as="geometry">
            <mxPoint x="36.01999999999995" y="640" as="sourcePoint" />
            <mxPoint x="71" y="621" as="targetPoint" />
          </mxGeometry>
        </mxCell>
        <mxCell id="bpnxgHZHVHbwMCRgW0WN-19" value="&lt;font style=&quot;font-size: 14px&quot;&gt;có&lt;/font&gt;" style="rhombus;whiteSpace=wrap;html=1;" parent="1" vertex="1">
          <mxGeometry x="560" y="650" width="80" height="40" as="geometry" />
        </mxCell>
        <mxCell id="bpnxgHZHVHbwMCRgW0WN-27" value="&lt;font style=&quot;font-size: 14px&quot;&gt;thuộc&lt;/font&gt;" style="rhombus;whiteSpace=wrap;html=1;" parent="1" vertex="1">
          <mxGeometry x="100" y="505" width="80" height="40" as="geometry" />
        </mxCell>
        <mxCell id="Yj_Iao0Bh0CvilCDldHS-1" style="edgeStyle=orthogonalEdgeStyle;rounded=0;orthogonalLoop=1;jettySize=auto;html=1;exitX=1;exitY=0.5;exitDx=0;exitDy=0;endArrow=none;endFill=0;" edge="1" parent="1" source="bpnxgHZHVHbwMCRgW0WN-28">
          <mxGeometry relative="1" as="geometry">
            <mxPoint x="440" y="400" as="targetPoint" />
          </mxGeometry>
        </mxCell>
        <mxCell id="bpnxgHZHVHbwMCRgW0WN-28" value="&lt;font style=&quot;font-size: 14px&quot;&gt;thuộc&lt;/font&gt;" style="rhombus;whiteSpace=wrap;html=1;" parent="1" vertex="1">
          <mxGeometry x="290" y="380" width="80" height="40" as="geometry" />
        </mxCell>
        <mxCell id="bpnxgHZHVHbwMCRgW0WN-29" value="" style="edgeStyle=orthogonalEdgeStyle;rounded=0;orthogonalLoop=1;jettySize=auto;html=1;exitX=1.025;exitY=0.367;exitDx=0;exitDy=0;entryX=0;entryY=0.5;entryDx=0;entryDy=0;endArrow=none;endFill=0;exitPerimeter=0;" parent="1" source="QMtQDDyE9ecYJNEzUJB2-4" target="bpnxgHZHVHbwMCRgW0WN-28" edge="1">
          <mxGeometry relative="1" as="geometry">
            <mxPoint x="140" y="360" as="sourcePoint" />
            <mxPoint x="140" y="200" as="targetPoint" />
            <Array as="points">
              <mxPoint x="203" y="400" />
            </Array>
          </mxGeometry>
        </mxCell>
        <mxCell id="bpnxgHZHVHbwMCRgW0WN-40" value="Tên MH" style="ellipse;whiteSpace=wrap;html=1;" parent="1" vertex="1">
          <mxGeometry x="730" y="750" width="90" height="50" as="geometry" />
        </mxCell>
        <mxCell id="bpnxgHZHVHbwMCRgW0WN-41" value="Mã MH" style="ellipse;whiteSpace=wrap;html=1;" parent="1" vertex="1">
          <mxGeometry x="630" y="750" width="90" height="50" as="geometry" />
        </mxCell>
        <mxCell id="bpnxgHZHVHbwMCRgW0WN-42" value="" style="endArrow=none;html=1;exitX=0.656;exitY=0.02;exitDx=0;exitDy=0;exitPerimeter=0;" parent="1" source="bpnxgHZHVHbwMCRgW0WN-41" edge="1">
          <mxGeometry width="50" height="50" relative="1" as="geometry">
            <mxPoint x="647" y="749" as="sourcePoint" />
            <mxPoint x="700" y="700" as="targetPoint" />
          </mxGeometry>
        </mxCell>
        <mxCell id="bpnxgHZHVHbwMCRgW0WN-43" value="" style="endArrow=none;html=1;exitX=0.5;exitY=0;exitDx=0;exitDy=0;" parent="1" edge="1">
          <mxGeometry width="50" height="50" relative="1" as="geometry">
            <mxPoint x="765" y="750" as="sourcePoint" />
            <mxPoint x="760" y="700" as="targetPoint" />
          </mxGeometry>
        </mxCell>
        <mxCell id="bpnxgHZHVHbwMCRgW0WN-44" value="" style="endArrow=none;html=1;exitX=0.7;exitY=0.02;exitDx=0;exitDy=0;exitPerimeter=0;" parent="1" source="bpnxgHZHVHbwMCRgW0WN-45" edge="1">
          <mxGeometry width="50" height="50" relative="1" as="geometry">
            <mxPoint x="435" y="750" as="sourcePoint" />
            <mxPoint x="430" y="700" as="targetPoint" />
          </mxGeometry>
        </mxCell>
        <mxCell id="bpnxgHZHVHbwMCRgW0WN-45" value="Mã Điểm" style="ellipse;whiteSpace=wrap;html=1;" parent="1" vertex="1">
          <mxGeometry x="324" y="750" width="90" height="50" as="geometry" />
        </mxCell>
        <mxCell id="bpnxgHZHVHbwMCRgW0WN-46" value="Sĩ Số" style="ellipse;whiteSpace=wrap;html=1;" parent="1" vertex="1">
          <mxGeometry x="200" y="455" width="90" height="50" as="geometry" />
        </mxCell>
        <mxCell id="bpnxgHZHVHbwMCRgW0WN-47" value="Tên Lớp" style="ellipse;whiteSpace=wrap;html=1;" parent="1" vertex="1">
          <mxGeometry x="120" y="290" width="90" height="50" as="geometry" />
        </mxCell>
        <mxCell id="bpnxgHZHVHbwMCRgW0WN-48" value="Mã Lớp" style="ellipse;whiteSpace=wrap;html=1;" parent="1" vertex="1">
          <mxGeometry x="10" y="300" width="90" height="50" as="geometry" />
        </mxCell>
        <mxCell id="bpnxgHZHVHbwMCRgW0WN-49" value="" style="endArrow=none;html=1;exitX=0.011;exitY=0.4;exitDx=0;exitDy=0;exitPerimeter=0;entryX=0.75;entryY=1;entryDx=0;entryDy=0;" parent="1" source="bpnxgHZHVHbwMCRgW0WN-46" target="QMtQDDyE9ecYJNEzUJB2-4" edge="1">
          <mxGeometry width="50" height="50" relative="1" as="geometry">
            <mxPoint x="153.85999999999996" y="477.32" as="sourcePoint" />
            <mxPoint x="180.0001948466052" y="439.99766952966394" as="targetPoint" />
          </mxGeometry>
        </mxCell>
        <mxCell id="bpnxgHZHVHbwMCRgW0WN-50" value="" style="endArrow=none;html=1;exitX=0;exitY=0;exitDx=0;exitDy=0;entryX=0;entryY=1;entryDx=0;entryDy=0;" parent="1" source="QMtQDDyE9ecYJNEzUJB2-4" edge="1">
          <mxGeometry width="50" height="50" relative="1" as="geometry">
            <mxPoint x="31.92999999999995" y="387.32" as="sourcePoint" />
            <mxPoint x="58.070194846605204" y="349.99766952966394" as="targetPoint" />
          </mxGeometry>
        </mxCell>
        <mxCell id="bpnxgHZHVHbwMCRgW0WN-51" value="" style="endArrow=none;html=1;exitX=0.575;exitY=-0.067;exitDx=0;exitDy=0;exitPerimeter=0;entryX=0.5;entryY=1;entryDx=0;entryDy=0;" parent="1" edge="1" target="bpnxgHZHVHbwMCRgW0WN-47" source="QMtQDDyE9ecYJNEzUJB2-4">
          <mxGeometry width="50" height="50" relative="1" as="geometry">
            <mxPoint x="199.99999999999997" y="380" as="sourcePoint" />
            <mxPoint x="220" y="340" as="targetPoint" />
          </mxGeometry>
        </mxCell>
        <mxCell id="bpnxgHZHVHbwMCRgW0WN-53" value="Tên Khối" style="ellipse;whiteSpace=wrap;html=1;" parent="1" vertex="1">
          <mxGeometry x="610" y="435" width="90" height="50" as="geometry" />
        </mxCell>
        <mxCell id="bpnxgHZHVHbwMCRgW0WN-54" value="Mã Khối" style="ellipse;whiteSpace=wrap;html=1;" parent="1" vertex="1">
          <mxGeometry x="590" y="325" width="90" height="50" as="geometry" />
        </mxCell>
        <mxCell id="bpnxgHZHVHbwMCRgW0WN-55" value="" style="endArrow=none;html=1;exitX=1;exitY=1;exitDx=0;exitDy=0;entryX=0;entryY=0.5;entryDx=0;entryDy=0;" parent="1" source="QMtQDDyE9ecYJNEzUJB2-7" target="bpnxgHZHVHbwMCRgW0WN-53" edge="1">
          <mxGeometry width="50" height="50" relative="1" as="geometry">
            <mxPoint x="228.86" y="200" as="sourcePoint" />
            <mxPoint x="255.00019484660527" y="162.67766952966394" as="targetPoint" />
          </mxGeometry>
        </mxCell>
        <mxCell id="bpnxgHZHVHbwMCRgW0WN-56" value="" style="endArrow=none;html=1;exitX=1;exitY=0.25;exitDx=0;exitDy=0;entryX=-0.022;entryY=0.66;entryDx=0;entryDy=0;entryPerimeter=0;" parent="1" source="QMtQDDyE9ecYJNEzUJB2-7" target="bpnxgHZHVHbwMCRgW0WN-54" edge="1">
          <mxGeometry width="50" height="50" relative="1" as="geometry">
            <mxPoint x="165" y="117.32" as="sourcePoint" />
            <mxPoint x="191.14019484660525" y="79.99766952966394" as="targetPoint" />
          </mxGeometry>
        </mxCell>
        <mxCell id="H7F43zGaFquIjmCWjuKK-1" value="Điểm Thi" style="ellipse;whiteSpace=wrap;html=1;" parent="1" vertex="1">
          <mxGeometry x="520" y="755" width="90" height="50" as="geometry" />
        </mxCell>
        <mxCell id="H7F43zGaFquIjmCWjuKK-2" value="" style="endArrow=none;html=1;exitX=0.311;exitY=0.06;exitDx=0;exitDy=0;exitPerimeter=0;" parent="1" source="H7F43zGaFquIjmCWjuKK-1" edge="1">
          <mxGeometry width="50" height="50" relative="1" as="geometry">
            <mxPoint x="495" y="750" as="sourcePoint" />
            <mxPoint x="490" y="700" as="targetPoint" />
          </mxGeometry>
        </mxCell>
        <mxCell id="H7F43zGaFquIjmCWjuKK-3" value="&lt;b&gt;&lt;font style=&quot;font-size: 14px&quot;&gt;(1,1)&lt;/font&gt;&lt;/b&gt;" style="text;html=1;align=center;verticalAlign=middle;resizable=0;points=[];autosize=1;strokeColor=none;" parent="1" vertex="1">
          <mxGeometry x="200" y="650" width="40" height="20" as="geometry" />
        </mxCell>
        <mxCell id="H7F43zGaFquIjmCWjuKK-4" value="&lt;b&gt;&lt;font style=&quot;font-size: 14px&quot;&gt;(0,n)&lt;/font&gt;&lt;/b&gt;" style="text;html=1;align=center;verticalAlign=middle;resizable=0;points=[];autosize=1;strokeColor=none;" parent="1" vertex="1">
          <mxGeometry x="355" y="650" width="50" height="20" as="geometry" />
        </mxCell>
        <mxCell id="H7F43zGaFquIjmCWjuKK-8" value="&lt;b&gt;&lt;font style=&quot;font-size: 14px&quot;&gt;(0,n)&lt;/font&gt;&lt;/b&gt;" style="text;html=1;align=center;verticalAlign=middle;resizable=0;points=[];autosize=1;strokeColor=none;" parent="1" vertex="1">
          <mxGeometry x="515" y="650" width="50" height="20" as="geometry" />
        </mxCell>
        <mxCell id="H7F43zGaFquIjmCWjuKK-9" value="&lt;b&gt;&lt;font style=&quot;font-size: 14px&quot;&gt;(1,1)&lt;/font&gt;&lt;/b&gt;" style="text;html=1;align=center;verticalAlign=middle;resizable=0;points=[];autosize=1;strokeColor=none;" parent="1" vertex="1">
          <mxGeometry x="640" y="650" width="40" height="20" as="geometry" />
        </mxCell>
        <mxCell id="H7F43zGaFquIjmCWjuKK-10" value="&lt;b&gt;&lt;font style=&quot;font-size: 14px&quot;&gt;(1,n)&lt;/font&gt;&lt;/b&gt;" style="text;html=1;align=center;verticalAlign=middle;resizable=0;points=[];autosize=1;strokeColor=none;" parent="1" vertex="1">
          <mxGeometry x="95" y="620" width="50" height="20" as="geometry" />
        </mxCell>
        <mxCell id="H7F43zGaFquIjmCWjuKK-11" value="&lt;b&gt;&lt;font style=&quot;font-size: 14px&quot;&gt;(1,1)&lt;/font&gt;&lt;/b&gt;" style="text;html=1;align=center;verticalAlign=middle;resizable=0;points=[];autosize=1;strokeColor=none;" parent="1" vertex="1">
          <mxGeometry x="100" y="440" width="40" height="20" as="geometry" />
        </mxCell>
        <mxCell id="H7F43zGaFquIjmCWjuKK-17" value="&lt;b&gt;&lt;font style=&quot;font-size: 14px&quot;&gt;(1,n)&lt;/font&gt;&lt;/b&gt;" style="text;html=1;align=center;verticalAlign=middle;resizable=0;points=[];autosize=1;strokeColor=none;" parent="1" vertex="1">
          <mxGeometry x="200" y="375" width="50" height="20" as="geometry" />
        </mxCell>
        <mxCell id="H7F43zGaFquIjmCWjuKK-18" value="&lt;b&gt;&lt;font style=&quot;font-size: 14px&quot;&gt;(1,1)&lt;/font&gt;&lt;/b&gt;" style="text;html=1;align=center;verticalAlign=middle;resizable=0;points=[];autosize=1;strokeColor=none;" parent="1" vertex="1">
          <mxGeometry x="490" y="375" width="40" height="20" as="geometry" />
        </mxCell>
      </root>
    </mxGraphModel>
  </diagram>
</mxfile>
